<mxfile><diagram name="Page-1" id="1Usiaf7zGHjCZnDUcOyG"><mxGraphModel dx="4494" dy="2340" grid="0" gridSize="10" guides="1" tooltips="1" connect="1" arrows="1" fold="1" page="1" pageScale="1" pageWidth="850" pageHeight="1100" background="#ffffff" math="0" shadow="0"><root><mxCell id="0"/><mxCell id="1" parent="0"/><mxCell id="79" value="opt" style="shape=umlFrame;whiteSpace=wrap;html=1;fontSize=11;fillColor=#ffcccc;strokeColor=#36393d;" parent="1" vertex="1"><mxGeometry x="-1595" y="-112.5" width="1750.43" height="102.5" as="geometry"/></mxCell><mxCell id="171" value="opt" style="shape=umlFrame;whiteSpace=wrap;html=1;fontSize=11;fillColor=#ffcccc;strokeColor=#36393d;" parent="1" vertex="1"><mxGeometry x="-1602" y="470.58" width="1777.43" height="159.42" as="geometry"/></mxCell><mxCell id="105" value="alt" style="shape=umlFrame;whiteSpace=wrap;html=1;fontSize=11;fillColor=#ffff88;strokeColor=#36393d;" parent="1" vertex="1"><mxGeometry x="-1370" y="1107.75" width="2162.04" height="442.25" as="geometry"/></mxCell><mxCell id="49" value="opt" style="shape=umlFrame;whiteSpace=wrap;html=1;fontSize=11;fillColor=#f8cecc;strokeColor=#b85450;" parent="1" vertex="1"><mxGeometry x="-1314" y="-402" width="1246.04" height="150" as="geometry"/></mxCell><mxCell id="sNeLnAX5NPceHbYuXLr0-2" value="&lt;font style=&quot;font-size: 12px;&quot;&gt;:InMemoryGameReposiotry&lt;/font&gt;" style="rounded=0;whiteSpace=wrap;html=1;fontSize=16;fillColor=#f8cecc;strokeColor=#b85450;" parent="1" vertex="1"><mxGeometry x="-557.96" y="-767.5" width="199" height="65" as="geometry"/></mxCell><mxCell id="sNeLnAX5NPceHbYuXLr0-7" value="&lt;font style=&quot;font-size: 12px;&quot;&gt;Notes: (Will delete later):&lt;br&gt;The server interface has constraints and limits. No client should appear to break these rules. Note that it should be&lt;br&gt;sufficient for the client to respect the return values of various API calls (although if it isn’t the client must not break a rule).&lt;br&gt;&lt;br&gt;• Tank can move once in every X seconds. (X = 0.5);&lt;br&gt;•&lt;br&gt;• Tank can make only one turn per step. (E.g., Correct turn: NORTH -&amp;gt; WEST Incorrect turn: NORTH -&amp;gt; SOUTH);&lt;br&gt;&lt;br&gt;• Tank can only move forward or back relative to its current direction. No sideways movements are allowed.&amp;nbsp;&lt;br&gt;&lt;br&gt;&lt;br&gt;&lt;/font&gt;" style="text;html=1;strokeColor=none;fillColor=none;align=center;verticalAlign=middle;whiteSpace=wrap;rounded=0;fontSize=16;" parent="1" vertex="1"><mxGeometry x="-1684.07" y="-1094" width="683" height="205" as="geometry"/></mxCell><mxCell id="sNeLnAX5NPceHbYuXLr0-11" style="edgeStyle=none;curved=1;rounded=0;orthogonalLoop=1;jettySize=auto;html=1;exitX=0.5;exitY=0;exitDx=0;exitDy=0;fontSize=12;startSize=8;endSize=8;" parent="1" edge="1"><mxGeometry relative="1" as="geometry"><mxPoint x="-1528.5700000000002" y="-556" as="sourcePoint"/><mxPoint x="-1528.5700000000002" y="-556" as="targetPoint"/></mxGeometry></mxCell><mxCell id="sNeLnAX5NPceHbYuXLr0-19" value=":Game" style="rounded=0;whiteSpace=wrap;html=1;fontSize=12;fillColor=#f8cecc;strokeColor=#b85450;" parent="1" vertex="1"><mxGeometry x="-239.46000000000004" y="-765" width="120" height="60" as="geometry"/></mxCell><mxCell id="sNeLnAX5NPceHbYuXLr0-20" value="" style="endArrow=none;html=1;rounded=0;fontSize=12;startSize=8;endSize=8;curved=1;entryX=0.5;entryY=1;entryDx=0;entryDy=0;startArrow=none;fillColor=#dae8fc;strokeColor=#6c8ebf;strokeWidth=5;" parent="1" target="sNeLnAX5NPceHbYuXLr0-19" edge="1"><mxGeometry width="50" height="50" relative="1" as="geometry"><mxPoint x="-184.57000000000005" y="1890" as="sourcePoint"/><mxPoint x="239.53999999999985" y="-680.5" as="targetPoint"/></mxGeometry></mxCell><mxCell id="sNeLnAX5NPceHbYuXLr0-23" value="&lt;font style=&quot;font-size: 11px;&quot;&gt;1: getTanks():&amp;nbsp;&lt;/font&gt;&lt;span style=&quot;font-size: 11px;&quot;&gt;ConcurrentMap&amp;lt;Long, Tank&amp;gt;&lt;/span&gt;" style="text;html=1;strokeColor=none;fillColor=none;align=center;verticalAlign=middle;whiteSpace=wrap;rounded=0;fontSize=12;" parent="1" vertex="1"><mxGeometry x="-414.57000000000005" y="-520" width="218.61" height="28" as="geometry"/></mxCell><mxCell id="sNeLnAX5NPceHbYuXLr0-25" value=":Tank" style="rounded=0;whiteSpace=wrap;html=1;fontSize=12;fillColor=#f8cecc;strokeColor=#b85450;" parent="1" vertex="1"><mxGeometry x="44.03999999999985" y="-762.5" width="129" height="60" as="geometry"/></mxCell><mxCell id="sNeLnAX5NPceHbYuXLr0-26" value="&lt;font style=&quot;font-size: 14px;&quot;&gt;getLastMoveTime(): Long&lt;/font&gt;" style="text;html=1;strokeColor=none;fillColor=none;align=center;verticalAlign=middle;whiteSpace=wrap;rounded=0;fontSize=12;" parent="1" vertex="1"><mxGeometry x="-83.96000000000015" y="-190" width="161" height="30" as="geometry"/></mxCell><mxCell id="sNeLnAX5NPceHbYuXLr0-27" value="setLastMoveTime( lastMoveTime): Long" style="text;html=1;strokeColor=none;fillColor=none;align=center;verticalAlign=middle;whiteSpace=wrap;rounded=0;fontSize=12;" parent="1" vertex="1"><mxGeometry x="-102.96000000000015" y="7.5" width="186" height="45" as="geometry"/></mxCell><mxCell id="sNeLnAX5NPceHbYuXLr0-28" value="&lt;font style=&quot;font-size: 13px;&quot;&gt;getAllowedMoveInterval(): Long&lt;/font&gt;" style="text;html=1;strokeColor=none;fillColor=none;align=center;verticalAlign=middle;whiteSpace=wrap;rounded=0;fontSize=12;" parent="1" vertex="1"><mxGeometry x="-97.96000000000015" y="77.5" width="189" height="30" as="geometry"/></mxCell><mxCell id="sNeLnAX5NPceHbYuXLr0-31" value=":FieldEntity" style="rounded=0;whiteSpace=wrap;html=1;fontSize=12;fillColor=#f8cecc;strokeColor=#b85450;" parent="1" vertex="1"><mxGeometry x="642.0399999999998" y="-764.5" width="145" height="62.5" as="geometry"/></mxCell><mxCell id="sNeLnAX5NPceHbYuXLr0-32" value="getParent(): FieldHolder" style="text;html=1;strokeColor=none;fillColor=none;align=center;verticalAlign=middle;whiteSpace=wrap;rounded=0;fontSize=12;" parent="1" vertex="1"><mxGeometry x="552.0399999999998" y="640" width="145" height="33" as="geometry"/></mxCell><mxCell id="sNeLnAX5NPceHbYuXLr0-34" value=":FieldHolder" style="rounded=0;whiteSpace=wrap;html=1;fontSize=12;fillColor=#f8cecc;strokeColor=#b85450;" parent="1" vertex="1"><mxGeometry x="400.03999999999985" y="-759.5" width="120" height="60" as="geometry"/></mxCell><mxCell id="sNeLnAX5NPceHbYuXLr0-35" value="getNeighbor(direction): FieldHolder" style="text;html=1;strokeColor=none;fillColor=none;align=center;verticalAlign=middle;whiteSpace=wrap;rounded=0;fontSize=12;" parent="1" vertex="1"><mxGeometry x="502.03999999999985" y="747.75" width="191" height="30" as="geometry"/></mxCell><mxCell id="sNeLnAX5NPceHbYuXLr0-36" value="clearField(): void" style="text;html=1;strokeColor=none;fillColor=none;align=center;verticalAlign=middle;whiteSpace=wrap;rounded=0;fontSize=12;" parent="1" vertex="1"><mxGeometry x="582.0399999999998" y="1166.75" width="111.97" height="31" as="geometry"/></mxCell><mxCell id="sNeLnAX5NPceHbYuXLr0-37" value="isPresent(): boolean" style="text;html=1;strokeColor=none;fillColor=none;align=center;verticalAlign=middle;whiteSpace=wrap;rounded=0;fontSize=12;" parent="1" vertex="1"><mxGeometry x="311.78999999999985" y="947.75" width="129" height="30" as="geometry"/></mxCell><mxCell id="sNeLnAX5NPceHbYuXLr0-38" value="setFieldEntity(entity): void" style="text;html=1;strokeColor=none;fillColor=none;align=center;verticalAlign=middle;whiteSpace=wrap;rounded=0;fontSize=12;" parent="1" vertex="1"><mxGeometry x="540.0399999999998" y="827.5" width="153" height="36" as="geometry"/></mxCell><mxCell id="sNeLnAX5NPceHbYuXLr0-39" value="setParent(nextField) : void" style="text;html=1;strokeColor=none;fillColor=none;align=center;verticalAlign=middle;whiteSpace=wrap;rounded=0;fontSize=12;" parent="1" vertex="1"><mxGeometry x="282.03999999999985" y="1257.75" width="158.75" height="36" as="geometry"/></mxCell><mxCell id="sNeLnAX5NPceHbYuXLr0-42" value=":GameController" style="rounded=0;whiteSpace=wrap;html=1;fontSize=12;fillColor=#f8cecc;strokeColor=#b85450;" parent="1" vertex="1"><mxGeometry x="-1172" y="-800" width="131" height="67.5" as="geometry"/></mxCell><mxCell id="5" value=":GameRepository" style="rounded=0;whiteSpace=wrap;html=1;fillColor=#f8cecc;strokeColor=#b85450;" parent="1" vertex="1"><mxGeometry x="-755.2700000000001" y="-767.5" width="120" height="65" as="geometry"/></mxCell><mxCell id="7" value="1: move(tankId, direction)" style="text;html=1;strokeColor=none;fillColor=none;align=center;verticalAlign=middle;whiteSpace=wrap;rounded=0;fontSize=12;" parent="1" vertex="1"><mxGeometry x="-895.57" y="-602" width="159" height="30" as="geometry"/></mxCell><mxCell id="9" value="" style="endArrow=none;html=1;startArrow=none;entryX=0.5;entryY=1;entryDx=0;entryDy=0;fillColor=#dae8fc;strokeColor=#6c8ebf;strokeWidth=5;" parent="1" source="126" target="sNeLnAX5NPceHbYuXLr0-42" edge="1"><mxGeometry width="50" height="50" relative="1" as="geometry"><mxPoint x="-1104.5700000000002" y="1400" as="sourcePoint"/><mxPoint x="-1104.5700000000002" y="-700" as="targetPoint"/></mxGeometry></mxCell><mxCell id="11" value="" style="endArrow=none;html=1;entryX=0.5;entryY=1;entryDx=0;entryDy=0;startArrow=none;fillColor=#dae8fc;strokeColor=#6c8ebf;strokeWidth=5;" parent="1" target="5" edge="1"><mxGeometry width="50" height="50" relative="1" as="geometry"><mxPoint x="-694.84" y="1867.5" as="sourcePoint"/><mxPoint x="-695.27" y="-670.5" as="targetPoint"/></mxGeometry></mxCell><mxCell id="15" value=":BooleanWrapper" style="rounded=0;whiteSpace=wrap;html=1;fillColor=#f8cecc;strokeColor=#b85450;" parent="1" vertex="1"><mxGeometry x="-956.51" y="-796.25" width="120" height="60" as="geometry"/></mxCell><mxCell id="18" value="" style="endArrow=none;html=1;entryX=0.5;entryY=1;entryDx=0;entryDy=0;startArrow=none;fillColor=#dae8fc;strokeColor=#6c8ebf;strokeWidth=5;" parent="1" target="sNeLnAX5NPceHbYuXLr0-2" edge="1"><mxGeometry width="50" height="50" relative="1" as="geometry"><mxPoint x="-458.57000000000005" y="1930" as="sourcePoint"/><mxPoint x="-32.46000000000015" y="-687.5" as="targetPoint"/></mxGeometry></mxCell><mxCell id="19" value="" style="endArrow=none;html=1;exitX=0.55;exitY=0.75;exitDx=0;exitDy=0;exitPerimeter=0;" parent="1" edge="1"><mxGeometry width="50" height="50" relative="1" as="geometry"><mxPoint x="-1249.5700000000002" y="-671" as="sourcePoint"/><mxPoint x="-1249.5700000000002" y="-670" as="targetPoint"/></mxGeometry></mxCell><mxCell id="22" value="" style="endArrow=classic;html=1;fillColor=#d5e8d4;strokeColor=#82b366;strokeWidth=4;" parent="1" edge="1"><mxGeometry width="50" height="50" relative="1" as="geometry"><mxPoint x="-1104.5700000000002" y="-630" as="sourcePoint"/><mxPoint x="-906.57" y="-630" as="targetPoint"/></mxGeometry></mxCell><mxCell id="23" value="&amp;lt;&amp;lt;create&amp;gt;&amp;gt;" style="text;html=1;strokeColor=none;fillColor=none;align=center;verticalAlign=middle;whiteSpace=wrap;rounded=0;" parent="1" vertex="1"><mxGeometry x="-1020.07" y="-662" width="60" height="30" as="geometry"/></mxCell><mxCell id="24" value="" style="endArrow=none;html=1;entryX=0.5;entryY=1;entryDx=0;entryDy=0;startArrow=none;fillColor=#dae8fc;strokeColor=#6c8ebf;strokeWidth=5;" parent="1" target="15" edge="1"><mxGeometry width="50" height="50" relative="1" as="geometry"><mxPoint x="-896.57" y="1881.9608800551468" as="sourcePoint"/><mxPoint x="-871.5" y="-534" as="targetPoint"/></mxGeometry></mxCell><mxCell id="29" value="" style="rounded=1;whiteSpace=wrap;html=1;rotation=90;fillColor=#ffe6cc;strokeColor=#d79b00;" parent="1" vertex="1"><mxGeometry x="-355.1700000000001" y="-370.16" width="351.43" height="36.56" as="geometry"/></mxCell><mxCell id="36" value="" style="endArrow=classic;html=1;fontSize=11;fillColor=#d5e8d4;strokeColor=#82b366;strokeWidth=4;" parent="1" edge="1"><mxGeometry width="50" height="50" relative="1" as="geometry"><mxPoint x="-439.96000000000004" y="-492" as="sourcePoint"/><mxPoint x="-196.57000000000005" y="-492" as="targetPoint"/></mxGeometry></mxCell><mxCell id="37" value="" style="endArrow=classic;html=1;fontSize=11;dashed=1;fillColor=#d5e8d4;strokeColor=#82b366;strokeWidth=4;" parent="1" edge="1"><mxGeometry width="50" height="50" relative="1" as="geometry"><mxPoint x="-197.57000000000005" y="-452.25" as="sourcePoint"/><mxPoint x="-440.96000000000004" y="-452.25" as="targetPoint"/></mxGeometry></mxCell><mxCell id="39" value="" style="endArrow=classic;html=1;fontSize=11;fillColor=#d5e8d4;strokeColor=#82b366;strokeWidth=4;" parent="1" edge="1"><mxGeometry width="50" height="50" relative="1" as="geometry"><mxPoint x="-437.35" y="-423.75" as="sourcePoint"/><mxPoint x="-195.96000000000004" y="-423.75" as="targetPoint"/></mxGeometry></mxCell><mxCell id="40" value="get(tankId): Tank" style="text;html=1;strokeColor=none;fillColor=none;align=center;verticalAlign=middle;whiteSpace=wrap;rounded=0;fontSize=12;" parent="1" vertex="1"><mxGeometry x="-304.57000000000005" y="-450" width="97.61" height="30" as="geometry"/></mxCell><mxCell id="41" value="" style="endArrow=classic;html=1;fontSize=11;dashed=1;fillColor=#d5e8d4;strokeColor=#82b366;strokeWidth=4;" parent="1" edge="1"><mxGeometry width="50" height="50" relative="1" as="geometry"><mxPoint x="-195.96000000000004" y="-210" as="sourcePoint"/><mxPoint x="-439.35" y="-210" as="targetPoint"/></mxGeometry></mxCell><mxCell id="43" value="return tanks" style="text;html=1;strokeColor=none;fillColor=none;align=center;verticalAlign=middle;whiteSpace=wrap;rounded=0;fontSize=11;" parent="1" vertex="1"><mxGeometry x="-268.11" y="-480" width="72.15" height="30" as="geometry"/></mxCell><mxCell id="44" value="&lt;span style=&quot;color: rgb(0, 0, 0); font-family: Helvetica; font-size: 12px; font-style: normal; font-variant-ligatures: normal; font-variant-caps: normal; font-weight: 400; letter-spacing: normal; orphans: 2; text-align: center; text-indent: 0px; text-transform: none; widows: 2; word-spacing: 0px; -webkit-text-stroke-width: 0px; background-color: rgb(251, 251, 251); text-decoration-thickness: initial; text-decoration-style: initial; text-decoration-color: initial; float: none; display: inline !important;&quot;&gt;Tank&lt;/span&gt;" style="text;whiteSpace=wrap;html=1;fontSize=11;" parent="1" vertex="1"><mxGeometry x="-242.35000000000002" y="-240" width="36" height="20" as="geometry"/></mxCell><mxCell id="28" value="" style="rounded=1;whiteSpace=wrap;html=1;rotation=90;fillColor=#ffe6cc;strokeColor=#d79b00;" parent="1" vertex="1"><mxGeometry x="-1605.26" y="561.59" width="2293.64" height="37.93" as="geometry"/></mxCell><mxCell id="51" value="[ tank == null ]" style="text;strokeColor=#9673a6;fillColor=#e1d5e7;align=center;verticalAlign=top;spacingLeft=4;spacingRight=4;overflow=hidden;rotatable=0;points=[[0,0.5],[1,0.5]];portConstraint=eastwest;fontSize=14;fontStyle=0" parent="1" vertex="1"><mxGeometry x="-516.1600000000001" y="-392.04" width="115.44" height="28.04" as="geometry"/></mxCell><mxCell id="52" value="" style="endArrow=classic;html=1;fontSize=11;dashed=1;fillColor=#d5e8d4;strokeColor=#82b366;strokeWidth=4;" parent="1" edge="1"><mxGeometry width="50" height="50" relative="1" as="geometry"><mxPoint x="-197.57000000000005" y="-325.25" as="sourcePoint"/><mxPoint x="-438.96000000000004" y="-325.25" as="targetPoint"/></mxGeometry></mxCell><mxCell id="59" value="&lt;font style=&quot;font-size: 12px;&quot;&gt;TankDoesNotExistException&lt;/font&gt;" style="text;html=1;strokeColor=none;fillColor=none;align=center;verticalAlign=middle;whiteSpace=wrap;rounded=0;fontSize=20;" parent="1" vertex="1"><mxGeometry x="-637.96" y="-362" width="160" height="40" as="geometry"/></mxCell><mxCell id="60" value="&lt;div style=&quot;text-align: center;&quot;&gt;&lt;span style=&quot;background-color: initial; font-size: 12px;&quot;&gt;null&lt;/span&gt;&lt;/div&gt;" style="text;whiteSpace=wrap;html=1;fontSize=11;" parent="1" vertex="1"><mxGeometry x="-239.46000000000004" y="-353.27" width="36" height="20" as="geometry"/></mxCell><mxCell id="61" value="" style="endArrow=classic;html=1;fontSize=11;dashed=1;fillColor=#d5e8d4;strokeColor=#82b366;strokeWidth=4;" parent="1" edge="1"><mxGeometry width="50" height="50" relative="1" as="geometry"><mxPoint x="-476.57000000000005" y="-323" as="sourcePoint"/><mxPoint x="-681.57" y="-324" as="targetPoint"/></mxGeometry></mxCell><mxCell id="62" value="" style="endArrow=classic;html=1;fontSize=11;dashed=1;fillColor=#d5e8d4;strokeColor=#82b366;strokeWidth=4;" parent="1" edge="1"><mxGeometry width="50" height="50" relative="1" as="geometry"><mxPoint x="-712.57" y="-323" as="sourcePoint"/><mxPoint x="-884.57" y="-323" as="targetPoint"/></mxGeometry></mxCell><mxCell id="63" value="&lt;font style=&quot;font-size: 12px;&quot;&gt;TankDoesNotExistException&lt;/font&gt;" style="text;html=1;strokeColor=none;fillColor=none;align=center;verticalAlign=middle;whiteSpace=wrap;rounded=0;fontSize=20;" parent="1" vertex="1"><mxGeometry x="-884.57" y="-366.88" width="160" height="30" as="geometry"/></mxCell><mxCell id="64" value="&lt;font style=&quot;font-size: 12px;&quot;&gt;TankDoesNotExistException&lt;/font&gt;" style="text;html=1;strokeColor=none;fillColor=none;align=center;verticalAlign=middle;whiteSpace=wrap;rounded=0;fontSize=20;" parent="1" vertex="1"><mxGeometry x="-1274.5700000000002" y="-369.33" width="160" height="40" as="geometry"/></mxCell><mxCell id="65" value="" style="endArrow=classic;html=1;fontSize=11;dashed=1;fillColor=#d5e8d4;strokeColor=#82b366;strokeWidth=4;" parent="1" edge="1"><mxGeometry width="50" height="50" relative="1" as="geometry"><mxPoint x="-1114.64" y="-323" as="sourcePoint"/><mxPoint x="-1304.64" y="-323" as="targetPoint"/></mxGeometry></mxCell><mxCell id="66" value="" style="endArrow=none;html=1;fontSize=12;entryX=0.5;entryY=1;entryDx=0;entryDy=0;startArrow=none;fillColor=#dae8fc;strokeColor=#6c8ebf;strokeWidth=5;" parent="1" target="sNeLnAX5NPceHbYuXLr0-25" edge="1"><mxGeometry width="50" height="50" relative="1" as="geometry"><mxPoint x="108.42999999999995" y="1930" as="sourcePoint"/><mxPoint x="124.03999999999985" y="-651.5" as="targetPoint"/><Array as="points"><mxPoint x="109.03999999999985" y="-282.5"/></Array></mxGeometry></mxCell><mxCell id="67" value="" style="rounded=1;whiteSpace=wrap;html=1;fontSize=12;rotation=90;fillColor=#ffe6cc;strokeColor=#d79b00;" parent="1" vertex="1"><mxGeometry x="-220.49" y="120.03" width="658.05" height="25" as="geometry"/></mxCell><mxCell id="70" value="" style="endArrow=classic;html=1;fontSize=11;fillColor=#d5e8d4;strokeColor=#82b366;strokeWidth=4;" parent="1" edge="1"><mxGeometry width="50" height="50" relative="1" as="geometry"><mxPoint x="-440.96000000000004" y="51" as="sourcePoint"/><mxPoint x="96.03999999999985" y="51" as="targetPoint"/></mxGeometry></mxCell><mxCell id="78" value="" style="endArrow=classic;html=1;fontSize=11;fillColor=#d5e8d4;strokeColor=#82b366;strokeWidth=4;" parent="1" edge="1"><mxGeometry width="50" height="50" relative="1" as="geometry"><mxPoint x="-439.57000000000005" y="-160" as="sourcePoint"/><mxPoint x="96.42999999999995" y="-160" as="targetPoint"/></mxGeometry></mxCell><mxCell id="71" value="" style="endArrow=classic;html=1;fontSize=11;entryX=0.533;entryY=0.84;entryDx=0;entryDy=0;entryPerimeter=0;fillColor=#d5e8d4;strokeColor=#82b366;strokeWidth=4;" parent="1" edge="1"><mxGeometry width="50" height="50" relative="1" as="geometry"><mxPoint x="-440.96000000000004" y="109" as="sourcePoint"/><mxPoint x="110.03999999999985" y="107.48900000000003" as="targetPoint"/></mxGeometry></mxCell><mxCell id="72" value="" style="endArrow=classic;html=1;fontSize=11;dashed=1;fillColor=#d5e8d4;strokeColor=#82b366;strokeWidth=4;" parent="1" edge="1"><mxGeometry width="50" height="50" relative="1" as="geometry"><mxPoint x="110.03999999999985" y="148" as="sourcePoint"/><mxPoint x="-439.96000000000004" y="148" as="targetPoint"/></mxGeometry></mxCell><mxCell id="73" value="&lt;font style=&quot;font-size: 13px;&quot;&gt;move interval&lt;/font&gt;" style="text;html=1;strokeColor=none;fillColor=none;align=center;verticalAlign=middle;whiteSpace=wrap;rounded=0;fontSize=12;" parent="1" vertex="1"><mxGeometry x="11.03999999999985" y="123" width="80" height="30" as="geometry"/></mxCell><mxCell id="74" value="" style="endArrow=classic;html=1;fontSize=11;dashed=1;fillColor=#d5e8d4;strokeColor=#82b366;strokeWidth=4;" parent="1" edge="1"><mxGeometry width="50" height="50" relative="1" as="geometry"><mxPoint x="95.03999999999985" y="207.5" as="sourcePoint"/><mxPoint x="-438.96000000000004" y="209.5" as="targetPoint"/></mxGeometry></mxCell><mxCell id="75" value="" style="rounded=1;whiteSpace=wrap;html=1;fontSize=12;rotation=90;fillColor=#ffe6cc;strokeColor=#d79b00;" parent="1" vertex="1"><mxGeometry x="71.03999999999985" y="112.5" width="102" height="25" as="geometry"/></mxCell><mxCell id="76" value="last move time" style="text;html=1;strokeColor=none;fillColor=none;align=center;verticalAlign=middle;whiteSpace=wrap;rounded=0;fontSize=12;" parent="1" vertex="1"><mxGeometry x="11.03999999999985" y="177.5" width="80" height="30" as="geometry"/></mxCell><mxCell id="80" value="" style="endArrow=classic;html=1;fontSize=11;dashed=1;fillColor=#d5e8d4;strokeColor=#82b366;strokeWidth=4;" parent="1" edge="1"><mxGeometry width="50" height="50" relative="1" as="geometry"><mxPoint x="96.42999999999995" y="-126" as="sourcePoint"/><mxPoint x="-439.57000000000005" y="-126" as="targetPoint"/></mxGeometry></mxCell><mxCell id="81" value="&lt;font style=&quot;font-size: 14px;&quot;&gt;[ millis &amp;lt; last move time ]&lt;/font&gt;" style="text;html=1;strokeColor=#9673a6;fillColor=#e1d5e7;align=center;verticalAlign=middle;whiteSpace=wrap;rounded=0;fontSize=12;" parent="1" vertex="1"><mxGeometry x="-522.0500000000001" y="-112.5" width="163.09" height="35.25" as="geometry"/></mxCell><mxCell id="83" value="last move time" style="text;html=1;strokeColor=none;fillColor=none;align=center;verticalAlign=middle;whiteSpace=wrap;rounded=0;fontSize=14;" parent="1" vertex="1"><mxGeometry x="-17.900000000000205" y="-150" width="120" height="30" as="geometry"/></mxCell><mxCell id="87" value="" style="endArrow=none;html=1;fontSize=13;targetPerimeterSpacing=0;entryX=0.5;entryY=1;entryDx=0;entryDy=0;startArrow=none;fillColor=#dae8fc;strokeColor=#6c8ebf;strokeWidth=5;" parent="1" target="sNeLnAX5NPceHbYuXLr0-31" edge="1"><mxGeometry width="50" height="50" relative="1" as="geometry"><mxPoint x="714.43" y="2050" as="sourcePoint"/><mxPoint x="752.0399999999998" y="-655.5" as="targetPoint"/></mxGeometry></mxCell><mxCell id="91" value="" style="endArrow=classic;html=1;dashed=1;fontSize=13;sourcePerimeterSpacing=-11;targetPerimeterSpacing=0;fillColor=#d5e8d4;strokeColor=#82b366;strokeWidth=4;" parent="1" edge="1"><mxGeometry width="50" height="50" relative="1" as="geometry"><mxPoint x="-478.57000000000005" y="-53" as="sourcePoint"/><mxPoint x="-682.57" y="-53" as="targetPoint"/></mxGeometry></mxCell><mxCell id="92" value="" style="endArrow=classic;html=1;dashed=1;fontSize=13;sourcePerimeterSpacing=-11;targetPerimeterSpacing=0;fillColor=#d5e8d4;strokeColor=#82b366;strokeWidth=4;" parent="1" edge="1"><mxGeometry width="50" height="50" relative="1" as="geometry"><mxPoint x="-1108.5700000000002" y="-50" as="sourcePoint"/><mxPoint x="-1568.5700000000002" y="-50" as="targetPoint"/></mxGeometry></mxCell><mxCell id="93" value="&lt;font style=&quot;font-size: 13px;&quot;&gt;return false&lt;/font&gt;" style="text;html=1;strokeColor=none;fillColor=none;align=center;verticalAlign=middle;whiteSpace=wrap;rounded=0;fontSize=11;" parent="1" vertex="1"><mxGeometry x="-557.96" y="-77.25" width="80" height="30" as="geometry"/></mxCell><mxCell id="94" value="&lt;font style=&quot;font-size: 13px;&quot;&gt;return false&lt;/font&gt;" style="text;html=1;strokeColor=none;fillColor=none;align=center;verticalAlign=middle;whiteSpace=wrap;rounded=0;fontSize=11;" parent="1" vertex="1"><mxGeometry x="-1204.5700000000002" y="-90" width="80" height="30" as="geometry"/></mxCell><mxCell id="95" value="" style="endArrow=classic;html=1;fontSize=11;fillColor=#d5e8d4;strokeColor=#82b366;strokeWidth=4;" parent="1" edge="1"><mxGeometry width="50" height="50" relative="1" as="geometry"><mxPoint x="-438.57000000000005" y="677.75" as="sourcePoint"/><mxPoint x="702.0399999999998" y="677.75" as="targetPoint"/></mxGeometry></mxCell><mxCell id="96" value="" style="rounded=1;whiteSpace=wrap;html=1;fontSize=12;rotation=90;fillColor=#ffe6cc;strokeColor=#d79b00;" parent="1" vertex="1"><mxGeometry x="368.41" y="936.89" width="692.29" height="25" as="geometry"/></mxCell><mxCell id="99" value="" style="endArrow=classic;html=1;fontSize=11;dashed=1;fillColor=#d5e8d4;strokeColor=#82b366;strokeWidth=4;" parent="1" edge="1"><mxGeometry width="50" height="50" relative="1" as="geometry"><mxPoint x="703.0399999999998" y="707.75" as="sourcePoint"/><mxPoint x="-438.96000000000004" y="709.75" as="targetPoint"/></mxGeometry></mxCell><mxCell id="100" value="parent" style="text;html=1;strokeColor=none;fillColor=none;align=center;verticalAlign=middle;whiteSpace=wrap;rounded=0;fontSize=13;" parent="1" vertex="1"><mxGeometry x="617.0399999999998" y="687.75" width="80" height="20" as="geometry"/></mxCell><mxCell id="101" value="" style="endArrow=none;html=1;fontSize=13;targetPerimeterSpacing=0;entryX=0.5;entryY=1;entryDx=0;entryDy=0;startArrow=none;fillColor=#dae8fc;strokeColor=#6c8ebf;strokeWidth=5;" parent="1" source="102" edge="1"><mxGeometry width="50" height="50" relative="1" as="geometry"><mxPoint x="462.03999999999985" y="567.5" as="sourcePoint"/><mxPoint x="459.4799999999999" y="-699.5" as="targetPoint"/></mxGeometry></mxCell><mxCell id="103" value="" style="endArrow=none;html=1;fontSize=13;entryX=1;entryY=0.5;entryDx=0;entryDy=0;startArrow=none;fillColor=#dae8fc;strokeColor=#6c8ebf;strokeWidth=5;" parent="1" target="102" edge="1"><mxGeometry width="50" height="50" relative="1" as="geometry"><mxPoint x="459.42999999999995" y="1980" as="sourcePoint"/><mxPoint x="459.2299999999999" y="-559.5" as="targetPoint"/></mxGeometry></mxCell><mxCell id="102" value="" style="rounded=1;whiteSpace=wrap;html=1;fontSize=12;rotation=90;fillColor=#ffe6cc;strokeColor=#d79b00;" parent="1" vertex="1"><mxGeometry x="222.53999999999985" y="1082.75" width="474.5" height="25" as="geometry"/></mxCell><mxCell id="104" value="" style="endArrow=classic;html=1;fontSize=11;fillColor=#d5e8d4;strokeColor=#82b366;strokeWidth=4;" parent="1" edge="1"><mxGeometry width="50" height="50" relative="1" as="geometry"><mxPoint x="-438.21000000000004" y="977.7500000000005" as="sourcePoint"/><mxPoint x="447.78999999999985" y="977.7500000000005" as="targetPoint"/></mxGeometry></mxCell><mxCell id="106" value="&lt;font style=&quot;font-size: 14px;&quot;&gt;[ !nextField.isPresent() ]&lt;/font&gt;" style="text;html=1;strokeColor=#9673a6;fillColor=#e1d5e7;align=center;verticalAlign=middle;whiteSpace=wrap;rounded=0;fontSize=12;" parent="1" vertex="1"><mxGeometry x="-533.46" y="1137.75" width="151.46" height="28.25" as="geometry"/></mxCell><mxCell id="107" value="" style="endArrow=classic;html=1;fontSize=11;dashed=1;fillColor=#d5e8d4;strokeColor=#82b366;strokeWidth=4;" parent="1" edge="1"><mxGeometry width="50" height="50" relative="1" as="geometry"><mxPoint x="447.78999999999985" y="1007.75" as="sourcePoint"/><mxPoint x="-439.21000000000004" y="1009.75" as="targetPoint"/></mxGeometry></mxCell><mxCell id="110" value="" style="endArrow=classic;html=1;fontSize=11;" parent="1" edge="1"><mxGeometry width="50" height="50" relative="1" as="geometry"><mxPoint x="-441.96000000000004" y="777.75" as="sourcePoint"/><mxPoint x="703.0399999999998" y="777.75" as="targetPoint"/></mxGeometry></mxCell><mxCell id="111" value="" style="endArrow=classic;html=1;fontSize=11;dashed=1;fillColor=#d5e8d4;strokeColor=#82b366;strokeWidth=4;" parent="1" edge="1"><mxGeometry width="50" height="50" relative="1" as="geometry"><mxPoint x="702.0399999999998" y="817.75" as="sourcePoint"/><mxPoint x="-438.96000000000004" y="819.75" as="targetPoint"/></mxGeometry></mxCell><mxCell id="112" value="&lt;font style=&quot;font-size: 13px;&quot;&gt;nextField&lt;/font&gt;" style="text;html=1;strokeColor=none;fillColor=none;align=center;verticalAlign=middle;whiteSpace=wrap;rounded=0;fontSize=16;" parent="1" vertex="1"><mxGeometry x="622.0399999999998" y="787.75" width="80" height="30" as="geometry"/></mxCell><mxCell id="114" value="true or false" style="text;html=1;strokeColor=none;fillColor=none;align=center;verticalAlign=middle;whiteSpace=wrap;rounded=0;fontSize=13;" parent="1" vertex="1"><mxGeometry x="345.28999999999985" y="977.75" width="95.5" height="30" as="geometry"/></mxCell><mxCell id="115" value="" style="endArrow=none;html=1;fontSize=13;sourcePerimeterSpacing=-11;targetPerimeterSpacing=0;dashed=1;fillColor=#fff2cc;strokeColor=#9933FF;gradientColor=#ffd966;" parent="1" edge="1"><mxGeometry width="50" height="50" relative="1" as="geometry"><mxPoint x="-577.96" y="1347.75" as="sourcePoint"/><mxPoint x="792.0399999999998" y="1347.75" as="targetPoint"/></mxGeometry></mxCell><mxCell id="116" value="" style="endArrow=classic;html=1;fontSize=11;fillColor=#d5e8d4;strokeColor=#82b366;strokeWidth=4;" parent="1" edge="1"><mxGeometry width="50" height="50" relative="1" as="geometry"><mxPoint x="-439.46000000000004" y="1197.75" as="sourcePoint"/><mxPoint x="703.0399999999998" y="1197.75" as="targetPoint"/></mxGeometry></mxCell><mxCell id="117" value="" style="endArrow=classic;html=1;fontSize=11;fillColor=#d5e8d4;strokeColor=#82b366;strokeWidth=4;" parent="1" edge="1"><mxGeometry width="50" height="50" relative="1" as="geometry"><mxPoint x="-440.46000000000004" y="1233.75" as="sourcePoint"/><mxPoint x="702.0399999999998" y="1233.75" as="targetPoint"/></mxGeometry></mxCell><mxCell id="118" value="" style="endArrow=classic;html=1;fontSize=11;fillColor=#d5e8d4;strokeColor=#82b366;strokeWidth=4;" parent="1" edge="1"><mxGeometry width="50" height="50" relative="1" as="geometry"><mxPoint x="-440.46000000000004" y="1287.75" as="sourcePoint"/><mxPoint x="448.03999999999985" y="1287.75" as="targetPoint"/></mxGeometry></mxCell><mxCell id="119" value="[ else ]" style="text;html=1;strokeColor=#9673a6;fillColor=#e1d5e7;align=center;verticalAlign=middle;whiteSpace=wrap;rounded=0;fontSize=13;" parent="1" vertex="1"><mxGeometry x="-557.96" y="1357.75" width="60" height="30" as="geometry"/></mxCell><mxCell id="120" value="" style="endArrow=classic;html=1;fontSize=11;dashed=1;fillColor=#d5e8d4;strokeColor=#82b366;strokeWidth=4;" parent="1" edge="1"><mxGeometry width="50" height="50" relative="1" as="geometry"><mxPoint x="-477.9600000000001" y="1306" as="sourcePoint"/><mxPoint x="-681.57" y="1306" as="targetPoint"/></mxGeometry></mxCell><mxCell id="121" value="return true" style="text;html=1;strokeColor=none;fillColor=none;align=center;verticalAlign=middle;whiteSpace=wrap;rounded=0;fontSize=13;" parent="1" vertex="1"><mxGeometry x="-567.96" y="1270" width="80" height="30" as="geometry"/></mxCell><mxCell id="122" value="" style="endArrow=classic;html=1;fontSize=11;dashed=1;fillColor=#d5e8d4;strokeColor=#82b366;strokeWidth=4;" parent="1" edge="1"><mxGeometry width="50" height="50" relative="1" as="geometry"><mxPoint x="-476" y="1477" as="sourcePoint"/><mxPoint x="-681.57" y="1477" as="targetPoint"/></mxGeometry></mxCell><mxCell id="123" value="return false" style="text;html=1;strokeColor=none;fillColor=none;align=center;verticalAlign=middle;whiteSpace=wrap;rounded=0;fontSize=13;" parent="1" vertex="1"><mxGeometry x="-557.96" y="1447.75" width="80" height="30" as="geometry"/></mxCell><mxCell id="124" value="" style="endArrow=classic;html=1;fontSize=11;dashed=1;fillColor=#d5e8d4;strokeColor=#82b366;strokeWidth=4;" parent="1" edge="1"><mxGeometry width="50" height="50" relative="1" as="geometry"><mxPoint x="-476" y="1657.25" as="sourcePoint"/><mxPoint x="-681.57" y="1657.25" as="targetPoint"/></mxGeometry></mxCell><mxCell id="125" value="return false" style="text;html=1;strokeColor=none;fillColor=none;align=center;verticalAlign=middle;whiteSpace=wrap;rounded=0;fontSize=13;" parent="1" vertex="1"><mxGeometry x="-557.96" y="1627.75" width="80" height="30" as="geometry"/></mxCell><mxCell id="127" value="" style="endArrow=none;html=1;fillColor=#dae8fc;strokeColor=#6c8ebf;strokeWidth=5;" parent="1" target="126" edge="1"><mxGeometry width="50" height="50" relative="1" as="geometry"><mxPoint x="-1104.5700000000002" y="1930" as="sourcePoint"/><mxPoint x="-1104.5700000000002" y="-700" as="targetPoint"/></mxGeometry></mxCell><mxCell id="126" value="" style="rounded=1;whiteSpace=wrap;html=1;rotation=90;fillColor=#ffe6cc;strokeColor=#d79b00;" parent="1" vertex="1"><mxGeometry x="-2299" y="595.45" width="2385" height="22.25" as="geometry"/></mxCell><mxCell id="129" value="" style="endArrow=none;html=1;entryX=0.5;entryY=1;entryDx=0;entryDy=0;" parent="1" target="128" edge="1"><mxGeometry width="50" height="50" relative="1" as="geometry"><mxPoint x="-896.5" y="1280" as="sourcePoint"/><mxPoint x="-896.5" y="-602" as="targetPoint"/></mxGeometry></mxCell><mxCell id="128" value="" style="rounded=1;whiteSpace=wrap;html=1;rotation=90;fillColor=#ffe6cc;strokeColor=#d79b00;" parent="1" vertex="1"><mxGeometry x="-2126.31" y="520.1500000000001" width="2459.6" height="22.25" as="geometry"/></mxCell><mxCell id="130" value="" style="rounded=1;whiteSpace=wrap;html=1;rotation=90;fillColor=#ffe6cc;strokeColor=#d79b00;" parent="1" vertex="1"><mxGeometry x="-1864.5700000000002" y="533.98" width="2338.58" height="22.25" as="geometry"/></mxCell><mxCell id="133" value="" style="endArrow=classic;html=1;fontSize=11;dashed=1;fillColor=#d5e8d4;strokeColor=#82b366;strokeWidth=4;" parent="1" edge="1"><mxGeometry width="50" height="50" relative="1" as="geometry"><mxPoint x="-916.6400000000001" y="-323" as="sourcePoint"/><mxPoint x="-1105.64" y="-323" as="targetPoint"/></mxGeometry></mxCell><mxCell id="134" value="&lt;font style=&quot;font-size: 12px;&quot;&gt;TankDoesNotExistException&lt;/font&gt;" style="text;html=1;strokeColor=none;fillColor=none;align=center;verticalAlign=middle;whiteSpace=wrap;rounded=0;fontSize=20;" parent="1" vertex="1"><mxGeometry x="-1094.64" y="-370.15999999999997" width="189" height="42.67" as="geometry"/></mxCell><mxCell id="136" value="" style="endArrow=classic;html=1;dashed=1;fontSize=13;sourcePerimeterSpacing=-11;targetPerimeterSpacing=0;fillColor=#d5e8d4;strokeColor=#82b366;strokeWidth=4;" parent="1" edge="1"><mxGeometry width="50" height="50" relative="1" as="geometry"><mxPoint x="-706.57" y="-53" as="sourcePoint"/><mxPoint x="-884.57" y="-53" as="targetPoint"/></mxGeometry></mxCell><mxCell id="137" value="&lt;font style=&quot;font-size: 13px;&quot;&gt;return false&lt;/font&gt;" style="text;html=1;strokeColor=none;fillColor=none;align=center;verticalAlign=middle;whiteSpace=wrap;rounded=0;fontSize=11;" parent="1" vertex="1"><mxGeometry x="-784.57" y="-90" width="80" height="30" as="geometry"/></mxCell><mxCell id="138" value="" style="endArrow=classic;html=1;dashed=1;fontSize=13;sourcePerimeterSpacing=-11;targetPerimeterSpacing=0;fillColor=#d5e8d4;strokeColor=#82b366;strokeWidth=4;" parent="1" edge="1"><mxGeometry width="50" height="50" relative="1" as="geometry"><mxPoint x="-906.57" y="-53" as="sourcePoint"/><mxPoint x="-1094.5700000000002" y="-53" as="targetPoint"/></mxGeometry></mxCell><mxCell id="139" value="&lt;font style=&quot;font-size: 13px;&quot;&gt;return false&lt;/font&gt;" style="text;html=1;strokeColor=none;fillColor=none;align=center;verticalAlign=middle;whiteSpace=wrap;rounded=0;fontSize=11;" parent="1" vertex="1"><mxGeometry x="-1001.07" y="-77.25" width="80" height="30" as="geometry"/></mxCell><mxCell id="141" value="" style="endArrow=classic;html=1;fontSize=11;dashed=1;fillColor=#d5e8d4;strokeColor=#82b366;strokeWidth=4;" parent="1" edge="1"><mxGeometry width="50" height="50" relative="1" as="geometry"><mxPoint x="-706.57" y="1306" as="sourcePoint"/><mxPoint x="-887.57" y="1306" as="targetPoint"/></mxGeometry></mxCell><mxCell id="142" value="" style="endArrow=classic;html=1;fontSize=11;dashed=1;fillColor=#d5e8d4;strokeColor=#82b366;strokeWidth=4;" parent="1" edge="1"><mxGeometry width="50" height="50" relative="1" as="geometry"><mxPoint x="-706.57" y="1477.25" as="sourcePoint"/><mxPoint x="-885.5" y="1477.25" as="targetPoint"/></mxGeometry></mxCell><mxCell id="143" value="return true" style="text;html=1;strokeColor=none;fillColor=none;align=center;verticalAlign=middle;whiteSpace=wrap;rounded=0;fontSize=13;" parent="1" vertex="1"><mxGeometry x="-784.57" y="1270" width="80" height="30" as="geometry"/></mxCell><mxCell id="144" value="return false" style="text;html=1;strokeColor=none;fillColor=none;align=center;verticalAlign=middle;whiteSpace=wrap;rounded=0;fontSize=13;" parent="1" vertex="1"><mxGeometry x="-784.57" y="1447.75" width="80" height="30" as="geometry"/></mxCell><mxCell id="145" value="" style="endArrow=classic;html=1;fontSize=11;dashed=1;fillColor=#d5e8d4;strokeColor=#82b366;strokeWidth=4;" parent="1" edge="1"><mxGeometry width="50" height="50" relative="1" as="geometry"><mxPoint x="-908.57" y="1657.25" as="sourcePoint"/><mxPoint x="-1094.5700000000002" y="1657.25" as="targetPoint"/></mxGeometry></mxCell><mxCell id="146" value="" style="endArrow=classic;html=1;fontSize=11;dashed=1;fillColor=#d5e8d4;strokeColor=#82b366;strokeWidth=4;" parent="1" edge="1"><mxGeometry width="50" height="50" relative="1" as="geometry"><mxPoint x="-908.57" y="1477.25" as="sourcePoint"/><mxPoint x="-1094.5700000000002" y="1477.25" as="targetPoint"/></mxGeometry></mxCell><mxCell id="147" value="" style="endArrow=classic;html=1;fontSize=11;dashed=1;fillColor=#d5e8d4;strokeColor=#82b366;strokeWidth=4;" parent="1" edge="1"><mxGeometry width="50" height="50" relative="1" as="geometry"><mxPoint x="-906.57" y="1306" as="sourcePoint"/><mxPoint x="-1094.5700000000002" y="1306" as="targetPoint"/></mxGeometry></mxCell><mxCell id="148" value="return true" style="text;html=1;strokeColor=none;fillColor=none;align=center;verticalAlign=middle;whiteSpace=wrap;rounded=0;fontSize=13;" parent="1" vertex="1"><mxGeometry x="-994.57" y="1270" width="80" height="30" as="geometry"/></mxCell><mxCell id="149" value="" style="endArrow=classic;html=1;fontSize=11;dashed=1;fillColor=#d5e8d4;strokeColor=#82b366;strokeWidth=4;" parent="1" edge="1"><mxGeometry width="50" height="50" relative="1" as="geometry"><mxPoint x="-706.57" y="1657.25" as="sourcePoint"/><mxPoint x="-885.4999999999999" y="1657.25" as="targetPoint"/></mxGeometry></mxCell><mxCell id="150" value="return false" style="text;html=1;strokeColor=none;fillColor=none;align=center;verticalAlign=middle;whiteSpace=wrap;rounded=0;fontSize=13;" parent="1" vertex="1"><mxGeometry x="-784.57" y="1620" width="80" height="30" as="geometry"/></mxCell><mxCell id="151" value="return false" style="text;html=1;strokeColor=none;fillColor=none;align=center;verticalAlign=middle;whiteSpace=wrap;rounded=0;fontSize=13;" parent="1" vertex="1"><mxGeometry x="-994.57" y="1627.75" width="80" height="30" as="geometry"/></mxCell><mxCell id="153" value="" style="endArrow=classic;html=1;fontSize=11;dashed=1;fillColor=#d5e8d4;strokeColor=#82b366;strokeWidth=4;" parent="1" edge="1"><mxGeometry width="50" height="50" relative="1" as="geometry"><mxPoint x="-1116.5700000000002" y="1306" as="sourcePoint"/><mxPoint x="-1300.5700000000002" y="1306" as="targetPoint"/></mxGeometry></mxCell><mxCell id="154" value="" style="endArrow=classic;html=1;fontSize=11;dashed=1;fillColor=#d5e8d4;strokeColor=#82b366;strokeWidth=4;" parent="1" edge="1"><mxGeometry width="50" height="50" relative="1" as="geometry"><mxPoint x="-1118.5699999999997" y="1477.25" as="sourcePoint"/><mxPoint x="-1304.5700000000002" y="1477.25" as="targetPoint"/></mxGeometry></mxCell><mxCell id="155" value="" style="endArrow=classic;html=1;fontSize=11;dashed=1;fillColor=#d5e8d4;strokeColor=#82b366;strokeWidth=4;" parent="1" edge="1"><mxGeometry width="50" height="50" relative="1" as="geometry"><mxPoint x="-1118.5699999999997" y="1657.25" as="sourcePoint"/><mxPoint x="-1304.5700000000002" y="1657.25" as="targetPoint"/></mxGeometry></mxCell><mxCell id="156" value="return true" style="text;html=1;strokeColor=none;fillColor=none;align=center;verticalAlign=middle;whiteSpace=wrap;rounded=0;fontSize=13;" parent="1" vertex="1"><mxGeometry x="-1204.5700000000002" y="1263.75" width="80" height="30" as="geometry"/></mxCell><mxCell id="157" value="return false" style="text;html=1;strokeColor=none;fillColor=none;align=center;verticalAlign=middle;whiteSpace=wrap;rounded=0;fontSize=13;" parent="1" vertex="1"><mxGeometry x="-994.57" y="1447.75" width="80" height="30" as="geometry"/></mxCell><mxCell id="158" value="return false" style="text;html=1;strokeColor=none;fillColor=none;align=center;verticalAlign=middle;whiteSpace=wrap;rounded=0;fontSize=13;" parent="1" vertex="1"><mxGeometry x="-1204.5700000000002" y="1447.75" width="80" height="30" as="geometry"/></mxCell><mxCell id="159" value="return false" style="text;html=1;strokeColor=none;fillColor=none;align=center;verticalAlign=middle;whiteSpace=wrap;rounded=0;fontSize=13;" parent="1" vertex="1"><mxGeometry x="-1194.5700000000002" y="1610" width="80" height="30" as="geometry"/></mxCell><mxCell id="164" value="Bullet Zone Rest Client Call to Move Tank" style="html=1;verticalAlign=bottom;startArrow=circle;startFill=1;endArrow=open;startSize=6;endSize=8;fontSize=13;sourcePerimeterSpacing=-11;targetPerimeterSpacing=0;strokeWidth=4;" parent="1" edge="1"><mxGeometry width="80" relative="1" as="geometry"><mxPoint x="-1413.5700000000002" y="-699.5" as="sourcePoint"/><mxPoint x="-1103.5700000000002" y="-699.5" as="targetPoint"/></mxGeometry></mxCell><mxCell id="165" value="&lt;div style=&quot;text-align: center;&quot;&gt;&lt;span style=&quot;font-size: 14px; background-color: transparent; font-family: Calibri, sans-serif;&quot;&gt;Diagram Description:&lt;br&gt;How constraints on turning or movement will be enforced on the server, resulting in a different return value in server responses to turning or movement requests from a client.&lt;/span&gt;&lt;/div&gt;&lt;p style=&quot;border-color: var(--border-color); font-size: 14px;&quot;&gt;&lt;/p&gt;&lt;font style=&quot;border-color: var(--border-color); font-size: 14px;&quot;&gt;&lt;/font&gt;" style="shape=note2;boundedLbl=1;whiteSpace=wrap;html=1;size=25;verticalAlign=top;align=left;fontSize=13;" parent="1" vertex="1"><mxGeometry x="-1664.57" y="-884" width="234.57" height="184.5" as="geometry"/></mxCell><mxCell id="167" value="" style="endArrow=classic;html=1;fontSize=11;fillColor=#d5e8d4;strokeColor=#82b366;strokeWidth=4;" parent="1" edge="1"><mxGeometry width="50" height="50" relative="1" as="geometry"><mxPoint x="-437.57000000000005" y="388.28999999999996" as="sourcePoint"/><mxPoint x="95.42999999999995" y="388.28999999999996" as="targetPoint"/></mxGeometry></mxCell><mxCell id="168" value="&lt;span style=&quot;font-size: 13px;&quot;&gt;getDirection(): Direction&lt;/span&gt;" style="text;html=1;strokeColor=none;fillColor=none;align=center;verticalAlign=middle;whiteSpace=wrap;rounded=0;fontSize=12;" parent="1" vertex="1"><mxGeometry x="-97.96000000000015" y="360.76" width="189" height="30" as="geometry"/></mxCell><mxCell id="169" value="" style="endArrow=classic;html=1;fontSize=11;dashed=1;fillColor=#d5e8d4;strokeColor=#82b366;strokeWidth=4;" parent="1" edge="1"><mxGeometry width="50" height="50" relative="1" as="geometry"><mxPoint x="95.42999999999995" y="429.99999999999955" as="sourcePoint"/><mxPoint x="-438.57000000000005" y="432" as="targetPoint"/></mxGeometry></mxCell><mxCell id="170" value="Current Direction" style="text;html=1;strokeColor=none;fillColor=none;align=center;verticalAlign=middle;whiteSpace=wrap;rounded=0;fontSize=12;" parent="1" vertex="1"><mxGeometry x="-4.57000000000005" y="400.25" width="95.61" height="30" as="geometry"/></mxCell><mxCell id="173" value="&lt;span style=&quot;font-size: 14px;&quot;&gt;[ currentDirection == Direction.Up &amp;amp;&amp;amp; direction != Direction.Down &lt;br&gt;|| currentDirection == Direction.Down &amp;amp;&amp;amp; direction != Direction.Up]&lt;/span&gt;" style="text;html=1;strokeColor=#9673a6;fillColor=#e1d5e7;align=center;verticalAlign=middle;whiteSpace=wrap;rounded=0;fontSize=12;" parent="1" vertex="1"><mxGeometry x="-599" y="509.27" width="424.57" height="44" as="geometry"/></mxCell><mxCell id="177" value="" style="endArrow=classic;html=1;dashed=1;fontSize=13;sourcePerimeterSpacing=-11;targetPerimeterSpacing=0;fillColor=#d5e8d4;strokeColor=#82b366;strokeWidth=4;" parent="1" edge="1"><mxGeometry width="50" height="50" relative="1" as="geometry"><mxPoint x="-478.57000000000005" y="574" as="sourcePoint"/><mxPoint x="-682.57" y="574" as="targetPoint"/></mxGeometry></mxCell><mxCell id="178" value="&lt;font style=&quot;font-size: 13px;&quot;&gt;return false&lt;/font&gt;" style="text;html=1;strokeColor=none;fillColor=none;align=center;verticalAlign=middle;whiteSpace=wrap;rounded=0;fontSize=11;" parent="1" vertex="1"><mxGeometry x="-557.96" y="550" width="80" height="30" as="geometry"/></mxCell><mxCell id="179" value="" style="endArrow=classic;html=1;dashed=1;fontSize=13;sourcePerimeterSpacing=-11;targetPerimeterSpacing=0;fillColor=#d5e8d4;strokeColor=#82b366;strokeWidth=4;" parent="1" edge="1"><mxGeometry width="50" height="50" relative="1" as="geometry"><mxPoint x="-704.57" y="574" as="sourcePoint"/><mxPoint x="-886.5" y="574" as="targetPoint"/></mxGeometry></mxCell><mxCell id="180" value="&lt;font style=&quot;font-size: 13px;&quot;&gt;return false&lt;/font&gt;" style="text;html=1;strokeColor=none;fillColor=none;align=center;verticalAlign=middle;whiteSpace=wrap;rounded=0;fontSize=11;" parent="1" vertex="1"><mxGeometry x="-826.5" y="550" width="80" height="30" as="geometry"/></mxCell><mxCell id="181" value="" style="endArrow=classic;html=1;dashed=1;fontSize=13;sourcePerimeterSpacing=-11;targetPerimeterSpacing=0;fillColor=#d5e8d4;strokeColor=#82b366;strokeWidth=4;" parent="1" edge="1"><mxGeometry width="50" height="50" relative="1" as="geometry"><mxPoint x="-907.57" y="574" as="sourcePoint"/><mxPoint x="-1095.5700000000002" y="574" as="targetPoint"/></mxGeometry></mxCell><mxCell id="182" value="&lt;font style=&quot;font-size: 13px;&quot;&gt;return false&lt;/font&gt;" style="text;html=1;strokeColor=none;fillColor=none;align=center;verticalAlign=middle;whiteSpace=wrap;rounded=0;fontSize=11;" parent="1" vertex="1"><mxGeometry x="-994.57" y="550" width="80" height="30" as="geometry"/></mxCell><mxCell id="183" value="" style="endArrow=classic;html=1;dashed=1;fontSize=13;sourcePerimeterSpacing=-11;targetPerimeterSpacing=0;fillColor=#d5e8d4;strokeColor=#82b366;strokeWidth=4;" parent="1" edge="1"><mxGeometry width="50" height="50" relative="1" as="geometry"><mxPoint x="-1116.5700000000002" y="574" as="sourcePoint"/><mxPoint x="-1574.5700000000002" y="574" as="targetPoint"/></mxGeometry></mxCell><mxCell id="184" value="&lt;font style=&quot;font-size: 13px;&quot;&gt;return false&lt;/font&gt;" style="text;html=1;strokeColor=none;fillColor=none;align=center;verticalAlign=middle;whiteSpace=wrap;rounded=0;fontSize=11;" parent="1" vertex="1"><mxGeometry x="-1194.5700000000002" y="550" width="80" height="30" as="geometry"/></mxCell><mxCell id="190" value="1: move(tankId, direction)" style="text;html=1;strokeColor=none;fillColor=none;align=center;verticalAlign=middle;whiteSpace=wrap;rounded=0;fontSize=12;" parent="1" vertex="1"><mxGeometry x="-638.96" y="-563" width="159" height="30" as="geometry"/></mxCell><mxCell id="191" value="" style="endArrow=classic;html=1;fillColor=#d5e8d4;strokeColor=#82b366;strokeWidth=4;" parent="1" edge="1"><mxGeometry width="50" height="50" relative="1" as="geometry"><mxPoint x="-683.57" y="-532" as="sourcePoint"/><mxPoint x="-477.57000000000005" y="-532" as="targetPoint"/></mxGeometry></mxCell><mxCell id="12" value="" style="endArrow=classic;html=1;fillColor=#d5e8d4;strokeColor=#82b366;strokeWidth=4;" parent="1" edge="1"><mxGeometry width="50" height="50" relative="1" as="geometry"><mxPoint x="-1094.5700000000002" y="-572" as="sourcePoint"/><mxPoint x="-705.57" y="-572" as="targetPoint"/></mxGeometry></mxCell><mxCell id="192" value="&lt;h1&gt;UML Sequence Tank Movement (Turn and Move)&lt;/h1&gt;" style="text;html=1;strokeColor=none;fillColor=none;align=center;verticalAlign=middle;whiteSpace=wrap;rounded=0;" vertex="1" parent="1"><mxGeometry x="-613.89" y="-1015" width="410.43" height="95" as="geometry"/></mxCell></root></mxGraphModel></diagram></mxfile>